<svg width="442" height="303" viewBox="0 0 442 303" fill="none" xmlns="http://www.w3.org/2000/svg">
<rect width="442" height="303" fill="#008DD1"/>
<mask id="mask0_3778_1791" style="mask-type:alpha" maskUnits="userSpaceOnUse" x="0" y="0" width="442" height="303">
<rect width="442" height="303" fill="#008DD1"/>
</mask>
<g mask="url(#mask0_3778_1791)">
<g opacity="0.2" filter="url(#filter0_dddd_3778_1791)">
<ellipse cx="442.617" cy="304.241" rx="168.617" ry="168.283" fill="white"/>
</g>
<g opacity="0.5" filter="url(#filter1_dddd_3778_1791)">
<ellipse cx="442.615" cy="304.241" rx="109.692" ry="109.474" fill="white"/>
</g>
<g filter="url(#filter2_dddd_3778_1791)">
<ellipse cx="442.619" cy="304.241" rx="66.1777" ry="66.0464" fill="white"/>
</g>
</g>
<path d="M31.4 35H59.2V41H48.6V70H42V41H31.4V35ZM56.6328 50.9C59.5828 47.2 62.9328 44.5 68.9828 44.5C75.7328 44.5 80.1328 48.35 80.1328 54.15V70H73.9328V66.5H73.2328C72.4328 68.15 70.6828 70.7 65.4328 70.7C59.8328 70.7 56.1328 67.7 56.1328 62.95C56.1328 59 59.5828 56.25 64.3328 55.75L73.8328 54.7V54.1C73.8328 51.75 72.0328 49.9 68.6328 49.9C65.3328 49.9 63.2828 51.6 61.7328 54.2L56.6328 50.9ZM62.7328 62.6C62.7328 64.3 64.1828 65.5 66.9828 65.5C71.3828 65.5 73.8328 62.9 73.8328 59.5V59.1L66.2328 60C63.8828 60.3 62.7328 61.15 62.7328 62.6ZM84.1113 38C84.1113 35.45 86.0613 33.7 88.5613 33.7C91.0613 33.7 93.0113 35.45 93.0113 38C93.0113 40.55 91.0613 42.3 88.5613 42.3C86.0613 42.3 84.1113 40.55 84.1113 38ZM91.7113 45.2V70H85.4113V45.2H91.7113ZM103.625 35V70H97.3254V35H103.625ZM107.739 57.6C107.739 49.8 113.439 44.5 120.739 44.5C128.039 44.5 133.739 49.8 133.739 57.6C133.739 65.4 128.039 70.7 120.739 70.7C113.439 70.7 107.739 65.4 107.739 57.6ZM114.039 57.6C114.039 62.1 116.739 65.1 120.739 65.1C124.739 65.1 127.439 62.1 127.439 57.6C127.439 53.1 124.739 50.1 120.739 50.1C116.739 50.1 114.039 53.1 114.039 57.6ZM144.053 45.2V48.8H144.753C145.703 46.05 147.803 45.1 150.953 45.1H153.353V50.8H149.653C146.453 50.8 144.153 52.5 144.153 56V70H137.853V45.2H144.053ZM154.321 57.4C154.321 49.9 159.471 44.5 166.771 44.5C173.971 44.5 178.821 49.55 178.821 57V59.45H160.771C161.021 62.75 163.371 65.3 166.971 65.3C170.471 65.3 172.321 63.35 173.171 61.6L178.321 64.6C176.621 67.2 173.721 70.7 167.071 70.7C159.671 70.7 154.321 65.1 154.321 57.4ZM160.821 55.05H172.421C171.971 51.9 169.971 49.9 166.721 49.9C163.171 49.9 161.321 52 160.821 55.05ZM207.426 35V70H201.226V66.5H200.526C199.226 68.6 197.026 70.7 192.626 70.7C186.426 70.7 181.226 65.2 181.226 57.6C181.226 50 186.426 44.5 192.626 44.5C197.026 44.5 199.226 46.6 200.526 48.7H201.126V35H207.426ZM194.326 50.1C190.526 50.1 187.526 52.8 187.526 57.6C187.526 62.4 190.526 65.1 194.326 65.1C198.226 65.1 201.126 62.3 201.126 57.6C201.126 52.9 198.226 50.1 194.326 50.1ZM45.85 84.3C53.35 84.3 58.8 88.4 58.8 95.4V96.9H52.4V95.85C52.4 91.85 49.85 90.1 45.85 90.1C42.35 90.1 40.2 91.85 40.2 94.25C40.2 97.55 43.3 98.15 47.5 99.1L47.95 99.2C55.15 100.8 59.4 103.35 59.4 109.7C59.4 116.75 53.9 120.7 46.45 120.7C37.9 120.7 32.4 116.1 32.4 107.9V106.8H38.9V107.7C38.9 112 41.35 114.9 46.65 114.9C50.9 114.9 52.9 112.65 52.9 110.05C52.9 107 50.3 106 45.7 105L45.25 104.9C38 103.3 33.7 100.8 33.7 94.45C33.7 88.2 39.05 84.3 45.85 84.3ZM62.4758 107.6C62.4758 99.8 68.1758 94.5 75.4758 94.5C82.7758 94.5 88.4758 99.8 88.4758 107.6C88.4758 115.4 82.7758 120.7 75.4758 120.7C68.1758 120.7 62.4758 115.4 62.4758 107.6ZM68.7758 107.6C68.7758 112.1 71.4758 115.1 75.4758 115.1C79.4758 115.1 82.1758 112.1 82.1758 107.6C82.1758 103.1 79.4758 100.1 75.4758 100.1C71.4758 100.1 68.7758 103.1 68.7758 107.6ZM98.8891 85V120H92.5891V85H98.8891ZM128.603 120H122.403V116H121.703C120.703 118.3 118.403 120.4 113.853 120.4C108.353 120.4 104.203 116.45 104.203 110V95.2H110.503V109.4C110.503 112.85 112.503 114.9 116.103 114.9C120.153 114.9 122.303 112.4 122.303 108V95.2H128.603V120ZM131.591 95.2H137.891V87.5H144.191V95.2H150.991V100.6H144.191V113.1C144.191 114.1 144.691 114.6 145.591 114.6H149.591V120H142.791C139.991 120 137.891 118 137.891 115.2V100.6H131.591V95.2ZM153.887 88C153.887 85.45 155.837 83.7 158.337 83.7C160.837 83.7 162.787 85.45 162.787 88C162.787 90.55 160.837 92.3 158.337 92.3C155.837 92.3 153.887 90.55 153.887 88ZM161.487 95.2V120H155.187V95.2H161.487ZM165.601 107.6C165.601 99.8 171.301 94.5 178.601 94.5C185.901 94.5 191.601 99.8 191.601 107.6C191.601 115.4 185.901 120.7 178.601 120.7C171.301 120.7 165.601 115.4 165.601 107.6ZM171.901 107.6C171.901 112.1 174.601 115.1 178.601 115.1C182.601 115.1 185.301 112.1 185.301 107.6C185.301 103.1 182.601 100.1 178.601 100.1C174.601 100.1 171.901 103.1 171.901 107.6ZM195.714 95.2H201.914V99.2H202.614C203.614 96.9 205.914 94.8 210.464 94.8C215.964 94.8 220.114 98.75 220.114 105.2V120H213.814V105.8C213.814 102.35 211.814 100.3 208.214 100.3C204.164 100.3 202.014 102.8 202.014 107.2V120H195.714V95.2ZM224.602 102.2C224.602 97.6 228.802 94.5 234.552 94.5C239.652 94.5 243.252 96.75 246.602 100.25L242.052 103.85C240.152 101.6 237.652 99.6 234.352 99.6C232.002 99.6 230.702 100.6 230.702 102.1C230.702 103.9 232.552 104.35 235.152 104.65L236.002 104.75C243.952 105.7 246.902 107.75 246.902 112.3C246.902 117.15 242.352 120.7 235.752 120.7C228.902 120.7 225.102 117.2 222.802 113.7L227.802 110.55C229.352 113.8 232.702 115.5 235.902 115.5C238.452 115.5 240.802 114.4 240.802 112.45C240.802 110.6 238.252 110.25 235.552 109.95L234.702 109.85C227.752 109.05 224.602 106.8 224.602 102.2ZM262.269 95.2H268.569V90.1C268.569 87.2 270.669 85 273.569 85H280.069V90.4H276.269C275.369 90.4 274.869 90.9 274.869 91.9V95.2H281.369V100.6H274.869V120H268.569V100.6H262.269V95.2ZM283.325 107.6C283.325 99.8 289.025 94.5 296.325 94.5C303.625 94.5 309.325 99.8 309.325 107.6C309.325 115.4 303.625 120.7 296.325 120.7C289.025 120.7 283.325 115.4 283.325 107.6ZM289.625 107.6C289.625 112.1 292.325 115.1 296.325 115.1C300.325 115.1 303.025 112.1 303.025 107.6C303.025 103.1 300.325 100.1 296.325 100.1C292.325 100.1 289.625 103.1 289.625 107.6ZM319.639 95.2V98.8H320.339C321.289 96.05 323.389 95.1 326.539 95.1H328.939V100.8H325.239C322.039 100.8 319.739 102.5 319.739 106V120H313.439V95.2H319.639ZM30.7 135H38.2L45.85 149.9H46.75L54.4 135H61.9L49.6 158.15V170H43V158.15L30.7 135ZM58.9113 157.6C58.9113 149.8 64.6113 144.5 71.9113 144.5C79.2113 144.5 84.9113 149.8 84.9113 157.6C84.9113 165.4 79.2113 170.7 71.9113 170.7C64.6113 170.7 58.9113 165.4 58.9113 157.6ZM65.2113 157.6C65.2113 162.1 67.9113 165.1 71.9113 165.1C75.9113 165.1 78.6113 162.1 78.6113 157.6C78.6113 153.1 75.9113 150.1 71.9113 150.1C67.9113 150.1 65.2113 153.1 65.2113 157.6ZM113.125 170H106.925V166H106.225C105.225 168.3 102.925 170.4 98.3746 170.4C92.8746 170.4 88.7246 166.45 88.7246 160V145.2H95.0246V159.4C95.0246 162.85 97.0246 164.9 100.625 164.9C104.675 164.9 106.825 162.4 106.825 158V145.2H113.125V170ZM124.912 145.2V148.8H125.612C126.562 146.05 128.662 145.1 131.812 145.1H134.212V150.8H130.512C127.312 150.8 125.012 152.5 125.012 156V170H118.712V145.2H124.912ZM150.99 135H173.29V141H157.59V149.45H172.29V155.45H157.59V170H150.99V135ZM201.211 170H195.011V166H194.311C193.311 168.3 191.011 170.4 186.461 170.4C180.961 170.4 176.811 166.45 176.811 160V145.2H183.111V159.4C183.111 162.85 185.111 164.9 188.711 164.9C192.761 164.9 194.911 162.4 194.911 158V145.2H201.211V170ZM204.198 145.2H210.498V137.5H216.798V145.2H223.598V150.6H216.798V163.1C216.798 164.1 217.298 164.6 218.198 164.6H222.198V170H215.398C212.598 170 210.498 168 210.498 165.2V150.6H204.198V145.2ZM251.894 170H245.694V166H244.994C243.994 168.3 241.694 170.4 237.144 170.4C231.644 170.4 227.494 166.45 227.494 160V145.2H233.794V159.4C233.794 162.85 235.794 164.9 239.394 164.9C243.444 164.9 245.594 162.4 245.594 158V145.2H251.894V170ZM263.682 145.2V148.8H264.382C265.332 146.05 267.432 145.1 270.582 145.1H272.982V150.8H269.282C266.082 150.8 263.782 152.5 263.782 156V170H257.482V145.2H263.682ZM273.95 157.4C273.95 149.9 279.1 144.5 286.4 144.5C293.6 144.5 298.45 149.55 298.45 157V159.45H280.4C280.65 162.75 283 165.3 286.6 165.3C290.1 165.3 291.95 163.35 292.8 161.6L297.95 164.6C296.25 167.2 293.35 170.7 286.7 170.7C279.3 170.7 273.95 165.1 273.95 157.4ZM280.45 155.05H292.05C291.6 151.9 289.6 149.9 286.35 149.9C282.8 149.9 280.95 152 280.45 155.05Z" fill="white"/>
<defs>
<filter id="filter0_dddd_3778_1791" x="231.831" y="124.023" width="381.79" height="360.434" filterUnits="userSpaceOnUse" color-interpolation-filters="sRGB">
<feFlood flood-opacity="0" result="BackgroundImageFix"/>
<feColorMatrix in="SourceAlpha" type="matrix" values="0 0 0 0 0 0 0 0 0 0 0 0 0 0 0 0 0 0 127 0" result="hardAlpha"/>
<feOffset dx="-1.59127"/>
<feGaussianBlur stdDeviation="1.98909"/>
<feColorMatrix type="matrix" values="0 0 0 0 0 0 0 0 0 0 0 0 0 0 0 0 0 0 0.1 0"/>
<feBlend mode="normal" in2="BackgroundImageFix" result="effect1_dropShadow_3778_1791"/>
<feColorMatrix in="SourceAlpha" type="matrix" values="0 0 0 0 0 0 0 0 0 0 0 0 0 0 0 0 0 0 127 0" result="hardAlpha"/>
<feOffset dx="-7.16071"/>
<feGaussianBlur stdDeviation="3.58036"/>
<feColorMatrix type="matrix" values="0 0 0 0 0 0 0 0 0 0 0 0 0 0 0 0 0 0 0.09 0"/>
<feBlend mode="normal" in2="effect1_dropShadow_3778_1791" result="effect2_dropShadow_3778_1791"/>
<feColorMatrix in="SourceAlpha" type="matrix" values="0 0 0 0 0 0 0 0 0 0 0 0 0 0 0 0 0 0 127 0" result="hardAlpha"/>
<feOffset dx="-16.7083"/>
<feGaussianBlur stdDeviation="5.17163"/>
<feColorMatrix type="matrix" values="0 0 0 0 0 0 0 0 0 0 0 0 0 0 0 0 0 0 0.05 0"/>
<feBlend mode="normal" in2="effect2_dropShadow_3778_1791" result="effect3_dropShadow_3778_1791"/>
<feColorMatrix in="SourceAlpha" type="matrix" values="0 0 0 0 0 0 0 0 0 0 0 0 0 0 0 0 0 0 127 0" result="hardAlpha"/>
<feOffset dx="-30.2341"/>
<feGaussianBlur stdDeviation="5.96726"/>
<feColorMatrix type="matrix" values="0 0 0 0 0 0 0 0 0 0 0 0 0 0 0 0 0 0 0.01 0"/>
<feBlend mode="normal" in2="effect3_dropShadow_3778_1791" result="effect4_dropShadow_3778_1791"/>
<feBlend mode="normal" in="SourceGraphic" in2="effect4_dropShadow_3778_1791" result="shape"/>
</filter>
<filter id="filter1_dddd_3778_1791" x="290.755" y="182.832" width="263.939" height="242.817" filterUnits="userSpaceOnUse" color-interpolation-filters="sRGB">
<feFlood flood-opacity="0" result="BackgroundImageFix"/>
<feColorMatrix in="SourceAlpha" type="matrix" values="0 0 0 0 0 0 0 0 0 0 0 0 0 0 0 0 0 0 127 0" result="hardAlpha"/>
<feOffset dx="-1.59127"/>
<feGaussianBlur stdDeviation="1.98909"/>
<feColorMatrix type="matrix" values="0 0 0 0 0 0 0 0 0 0 0 0 0 0 0 0 0 0 0.1 0"/>
<feBlend mode="normal" in2="BackgroundImageFix" result="effect1_dropShadow_3778_1791"/>
<feColorMatrix in="SourceAlpha" type="matrix" values="0 0 0 0 0 0 0 0 0 0 0 0 0 0 0 0 0 0 127 0" result="hardAlpha"/>
<feOffset dx="-7.16071"/>
<feGaussianBlur stdDeviation="3.58036"/>
<feColorMatrix type="matrix" values="0 0 0 0 0 0 0 0 0 0 0 0 0 0 0 0 0 0 0.09 0"/>
<feBlend mode="normal" in2="effect1_dropShadow_3778_1791" result="effect2_dropShadow_3778_1791"/>
<feColorMatrix in="SourceAlpha" type="matrix" values="0 0 0 0 0 0 0 0 0 0 0 0 0 0 0 0 0 0 127 0" result="hardAlpha"/>
<feOffset dx="-16.7083"/>
<feGaussianBlur stdDeviation="5.17163"/>
<feColorMatrix type="matrix" values="0 0 0 0 0 0 0 0 0 0 0 0 0 0 0 0 0 0 0.05 0"/>
<feBlend mode="normal" in2="effect2_dropShadow_3778_1791" result="effect3_dropShadow_3778_1791"/>
<feColorMatrix in="SourceAlpha" type="matrix" values="0 0 0 0 0 0 0 0 0 0 0 0 0 0 0 0 0 0 127 0" result="hardAlpha"/>
<feOffset dx="-30.2341"/>
<feGaussianBlur stdDeviation="5.96726"/>
<feColorMatrix type="matrix" values="0 0 0 0 0 0 0 0 0 0 0 0 0 0 0 0 0 0 0.01 0"/>
<feBlend mode="normal" in2="effect3_dropShadow_3778_1791" result="effect4_dropShadow_3778_1791"/>
<feBlend mode="normal" in="SourceGraphic" in2="effect4_dropShadow_3778_1791" result="shape"/>
</filter>
<filter id="filter2_dddd_3778_1791" x="334.272" y="226.26" width="176.911" height="155.962" filterUnits="userSpaceOnUse" color-interpolation-filters="sRGB">
<feFlood flood-opacity="0" result="BackgroundImageFix"/>
<feColorMatrix in="SourceAlpha" type="matrix" values="0 0 0 0 0 0 0 0 0 0 0 0 0 0 0 0 0 0 127 0" result="hardAlpha"/>
<feOffset dx="-1.59127"/>
<feGaussianBlur stdDeviation="1.98909"/>
<feColorMatrix type="matrix" values="0 0 0 0 0 0 0 0 0 0 0 0 0 0 0 0 0 0 0.1 0"/>
<feBlend mode="normal" in2="BackgroundImageFix" result="effect1_dropShadow_3778_1791"/>
<feColorMatrix in="SourceAlpha" type="matrix" values="0 0 0 0 0 0 0 0 0 0 0 0 0 0 0 0 0 0 127 0" result="hardAlpha"/>
<feOffset dx="-7.16071"/>
<feGaussianBlur stdDeviation="3.58036"/>
<feColorMatrix type="matrix" values="0 0 0 0 0 0 0 0 0 0 0 0 0 0 0 0 0 0 0.09 0"/>
<feBlend mode="normal" in2="effect1_dropShadow_3778_1791" result="effect2_dropShadow_3778_1791"/>
<feColorMatrix in="SourceAlpha" type="matrix" values="0 0 0 0 0 0 0 0 0 0 0 0 0 0 0 0 0 0 127 0" result="hardAlpha"/>
<feOffset dx="-16.7083"/>
<feGaussianBlur stdDeviation="5.17163"/>
<feColorMatrix type="matrix" values="0 0 0 0 0 0 0 0 0 0 0 0 0 0 0 0 0 0 0.05 0"/>
<feBlend mode="normal" in2="effect2_dropShadow_3778_1791" result="effect3_dropShadow_3778_1791"/>
<feColorMatrix in="SourceAlpha" type="matrix" values="0 0 0 0 0 0 0 0 0 0 0 0 0 0 0 0 0 0 127 0" result="hardAlpha"/>
<feOffset dx="-30.2341"/>
<feGaussianBlur stdDeviation="5.96726"/>
<feColorMatrix type="matrix" values="0 0 0 0 0 0 0 0 0 0 0 0 0 0 0 0 0 0 0.01 0"/>
<feBlend mode="normal" in2="effect3_dropShadow_3778_1791" result="effect4_dropShadow_3778_1791"/>
<feBlend mode="normal" in="SourceGraphic" in2="effect4_dropShadow_3778_1791" result="shape"/>
</filter>
</defs>
</svg>
