<svg width="71" height="71" viewBox="0 0 71 71" fill="none" xmlns="http://www.w3.org/2000/svg">
<path d="M64.4042 66.5212H6.10998C4.91495 66.5212 3.92395 65.5302 3.92395 64.3352C3.92395 63.1402 4.91495 62.1492 6.10998 62.1492H64.4042C65.5992 62.1492 66.5902 63.1402 66.5902 64.3352C66.5902 65.5302 65.5992 66.5212 64.4042 66.5212Z" fill="white"/>
<path d="M41.8149 66.5215H28.6987C27.5037 66.5215 26.5127 65.5305 26.5127 64.3355V11.8707C26.5127 6.85738 29.2817 3.85522 33.9452 3.85522H36.5684C41.232 3.85522 44.001 6.85738 44.001 11.8707V64.3355C44.001 65.5305 43.01 66.5215 41.8149 66.5215ZM30.8848 62.1494H39.6289V11.8707C39.6289 8.51876 38.055 8.22729 36.5684 8.22729H33.9452C32.4587 8.22729 30.8848 8.51876 30.8848 11.8707V62.1494Z" fill="white"/>
<path d="M20.6833 66.5215H9.02441C7.82938 66.5215 6.83838 65.5305 6.83838 64.3355V29.359C6.83838 24.3457 9.40332 21.3435 13.688 21.3435H16.0197C20.3043 21.3435 22.8693 24.3457 22.8693 29.359V64.3355C22.8693 65.5305 21.8783 66.5215 20.6833 66.5215ZM11.2104 62.1495H18.4972V29.359C18.4972 25.7156 16.8941 25.7156 16.0197 25.7156H13.688C12.8135 25.7156 11.2104 25.7156 11.2104 29.359V62.1495Z" fill="white"/>
<path d="M61.4895 66.5212H49.8307C48.6357 66.5212 47.6447 65.5302 47.6447 64.3352V43.9322C47.6447 38.9189 50.2096 35.9167 54.4942 35.9167H56.826C61.1106 35.9167 63.6756 38.9189 63.6756 43.9322V64.3352C63.6756 65.5302 62.6846 66.5212 61.4895 66.5212ZM52.0167 62.1491H59.3035V43.9322C59.3035 40.2888 57.7004 40.2888 56.826 40.2888H54.4942C53.6198 40.2888 52.0167 40.2888 52.0167 43.9322V62.1491Z" fill="white"/>
</svg>
