<svg width="442" height="303" viewBox="0 0 442 303" fill="none" xmlns="http://www.w3.org/2000/svg">
<rect width="442" height="303" fill="#5DBB61"/>
<mask id="mask0_3778_1809" style="mask-type:alpha" maskUnits="userSpaceOnUse" x="0" y="0" width="442" height="303">
<rect width="442" height="303" fill="#008DD1"/>
</mask>
<g mask="url(#mask0_3778_1809)">
<g opacity="0.2" filter="url(#filter0_dddd_3778_1809)">
<ellipse cx="442.617" cy="304.241" rx="168.617" ry="168.283" fill="white"/>
</g>
<g opacity="0.5" filter="url(#filter1_dddd_3778_1809)">
<ellipse cx="442.615" cy="304.241" rx="109.692" ry="109.474" fill="white"/>
</g>
<g filter="url(#filter2_dddd_3778_1809)">
<ellipse cx="442.619" cy="304.241" rx="66.1777" ry="66.0464" fill="white"/>
</g>
</g>
<path d="M33.9 35H40.5V70H33.9V35ZM46.2023 45.2H52.4023V49.2H53.1023C54.1023 46.9 56.4023 44.8 60.9523 44.8C66.4523 44.8 70.6023 48.75 70.6023 55.2V70H64.3023V55.8C64.3023 52.35 62.3023 50.3 58.7023 50.3C54.6523 50.3 52.5023 52.8 52.5023 57.2V70H46.2023V45.2ZM75.8898 45.2H82.0898V49.2H82.7898C83.7898 46.9 86.0898 44.8 90.6398 44.8C96.1398 44.8 100.29 48.75 100.29 55.2V70H93.9898V55.8C93.9898 52.35 91.9898 50.3 88.3898 50.3C84.3398 50.3 82.1898 52.8 82.1898 57.2V70H75.8898V45.2ZM104.077 57.6C104.077 49.8 109.777 44.5 117.077 44.5C124.377 44.5 130.077 49.8 130.077 57.6C130.077 65.4 124.377 70.7 117.077 70.7C109.777 70.7 104.077 65.4 104.077 57.6ZM110.377 57.6C110.377 62.1 113.077 65.1 117.077 65.1C121.077 65.1 123.777 62.1 123.777 57.6C123.777 53.1 121.077 50.1 117.077 50.1C113.077 50.1 110.377 53.1 110.377 57.6ZM131.002 45.2H137.802L143.902 64.5H144.502L150.602 45.2H157.402L148.852 70H139.552L131.002 45.2ZM159.025 50.9C161.975 47.2 165.325 44.5 171.375 44.5C178.125 44.5 182.525 48.35 182.525 54.15V70H176.325V66.5H175.625C174.825 68.15 173.075 70.7 167.825 70.7C162.225 70.7 158.525 67.7 158.525 62.95C158.525 59 161.975 56.25 166.725 55.75L176.225 54.7V54.1C176.225 51.75 174.425 49.9 171.025 49.9C167.725 49.9 165.675 51.6 164.125 54.2L159.025 50.9ZM165.125 62.6C165.125 64.3 166.575 65.5 169.375 65.5C173.775 65.5 176.225 62.9 176.225 59.5V59.1L168.625 60C166.275 60.3 165.125 61.15 165.125 62.6ZM184.716 45.2H191.016V37.5H197.316V45.2H204.116V50.6H197.316V63.1C197.316 64.1 197.816 64.6 198.716 64.6H202.716V70H195.916C193.116 70 191.016 68 191.016 65.2V50.6H184.716V45.2ZM207.012 38C207.012 35.45 208.962 33.7 211.462 33.7C213.962 33.7 215.912 35.45 215.912 38C215.912 40.55 213.962 42.3 211.462 42.3C208.962 42.3 207.012 40.55 207.012 38ZM214.612 45.2V70H208.312V45.2H214.612ZM217.526 45.2H224.326L230.426 64.5H231.026L237.126 45.2H243.926L235.376 70H226.076L217.526 45.2ZM244.849 57.4C244.849 49.9 249.999 44.5 257.299 44.5C264.499 44.5 269.349 49.55 269.349 57V59.45H251.299C251.549 62.75 253.899 65.3 257.499 65.3C260.999 65.3 262.849 63.35 263.699 61.6L268.849 64.6C267.149 67.2 264.249 70.7 257.599 70.7C250.199 70.7 244.849 65.1 244.849 57.4ZM251.349 55.05H262.949C262.499 51.9 260.499 49.9 257.249 49.9C253.699 49.9 251.849 52 251.349 55.05ZM45.85 84.3C53.35 84.3 58.8 88.4 58.8 95.4V96.9H52.4V95.85C52.4 91.85 49.85 90.1 45.85 90.1C42.35 90.1 40.2 91.85 40.2 94.25C40.2 97.55 43.3 98.15 47.5 99.1L47.95 99.2C55.15 100.8 59.4 103.35 59.4 109.7C59.4 116.75 53.9 120.7 46.45 120.7C37.9 120.7 32.4 116.1 32.4 107.9V106.8H38.9V107.7C38.9 112 41.35 114.9 46.65 114.9C50.9 114.9 52.9 112.65 52.9 110.05C52.9 107 50.3 106 45.7 105L45.25 104.9C38 103.3 33.7 100.8 33.7 94.45C33.7 88.2 39.05 84.3 45.85 84.3ZM62.4758 107.6C62.4758 99.8 68.1758 94.5 75.4758 94.5C82.7758 94.5 88.4758 99.8 88.4758 107.6C88.4758 115.4 82.7758 120.7 75.4758 120.7C68.1758 120.7 62.4758 115.4 62.4758 107.6ZM68.7758 107.6C68.7758 112.1 71.4758 115.1 75.4758 115.1C79.4758 115.1 82.1758 112.1 82.1758 107.6C82.1758 103.1 79.4758 100.1 75.4758 100.1C71.4758 100.1 68.7758 103.1 68.7758 107.6ZM98.8891 85V120H92.5891V85H98.8891ZM128.603 120H122.403V116H121.703C120.703 118.3 118.403 120.4 113.853 120.4C108.353 120.4 104.203 116.45 104.203 110V95.2H110.503V109.4C110.503 112.85 112.503 114.9 116.103 114.9C120.153 114.9 122.303 112.4 122.303 108V95.2H128.603V120ZM131.591 95.2H137.891V87.5H144.191V95.2H150.991V100.6H144.191V113.1C144.191 114.1 144.691 114.6 145.591 114.6H149.591V120H142.791C139.991 120 137.891 118 137.891 115.2V100.6H131.591V95.2ZM153.887 88C153.887 85.45 155.837 83.7 158.337 83.7C160.837 83.7 162.787 85.45 162.787 88C162.787 90.55 160.837 92.3 158.337 92.3C155.837 92.3 153.887 90.55 153.887 88ZM161.487 95.2V120H155.187V95.2H161.487ZM165.601 107.6C165.601 99.8 171.301 94.5 178.601 94.5C185.901 94.5 191.601 99.8 191.601 107.6C191.601 115.4 185.901 120.7 178.601 120.7C171.301 120.7 165.601 115.4 165.601 107.6ZM171.901 107.6C171.901 112.1 174.601 115.1 178.601 115.1C182.601 115.1 185.301 112.1 185.301 107.6C185.301 103.1 182.601 100.1 178.601 100.1C174.601 100.1 171.901 103.1 171.901 107.6ZM195.714 95.2H201.914V99.2H202.614C203.614 96.9 205.914 94.8 210.464 94.8C215.964 94.8 220.114 98.75 220.114 105.2V120H213.814V105.8C213.814 102.35 211.814 100.3 208.214 100.3C204.164 100.3 202.014 102.8 202.014 107.2V120H195.714V95.2ZM224.602 102.2C224.602 97.6 228.802 94.5 234.552 94.5C239.652 94.5 243.252 96.75 246.602 100.25L242.052 103.85C240.152 101.6 237.652 99.6 234.352 99.6C232.002 99.6 230.702 100.6 230.702 102.1C230.702 103.9 232.552 104.35 235.152 104.65L236.002 104.75C243.952 105.7 246.902 107.75 246.902 112.3C246.902 117.15 242.352 120.7 235.752 120.7C228.902 120.7 225.102 117.2 222.802 113.7L227.802 110.55C229.352 113.8 232.702 115.5 235.902 115.5C238.452 115.5 240.802 114.4 240.802 112.45C240.802 110.6 238.252 110.25 235.552 109.95L234.702 109.85C227.752 109.05 224.602 106.8 224.602 102.2ZM262.269 95.2H268.569V90.1C268.569 87.2 270.669 85 273.569 85H280.069V90.4H276.269C275.369 90.4 274.869 90.9 274.869 91.9V95.2H281.369V100.6H274.869V120H268.569V100.6H262.269V95.2ZM283.325 107.6C283.325 99.8 289.025 94.5 296.325 94.5C303.625 94.5 309.325 99.8 309.325 107.6C309.325 115.4 303.625 120.7 296.325 120.7C289.025 120.7 283.325 115.4 283.325 107.6ZM289.625 107.6C289.625 112.1 292.325 115.1 296.325 115.1C300.325 115.1 303.025 112.1 303.025 107.6C303.025 103.1 300.325 100.1 296.325 100.1C292.325 100.1 289.625 103.1 289.625 107.6ZM319.639 95.2V98.8H320.339C321.289 96.05 323.389 95.1 326.539 95.1H328.939V100.8H325.239C322.039 100.8 319.739 102.5 319.739 106V120H313.439V95.2H319.639ZM30.7 135H38.2L45.85 149.9H46.75L54.4 135H61.9L49.6 158.15V170H43V158.15L30.7 135ZM58.9113 157.6C58.9113 149.8 64.6113 144.5 71.9113 144.5C79.2113 144.5 84.9113 149.8 84.9113 157.6C84.9113 165.4 79.2113 170.7 71.9113 170.7C64.6113 170.7 58.9113 165.4 58.9113 157.6ZM65.2113 157.6C65.2113 162.1 67.9113 165.1 71.9113 165.1C75.9113 165.1 78.6113 162.1 78.6113 157.6C78.6113 153.1 75.9113 150.1 71.9113 150.1C67.9113 150.1 65.2113 153.1 65.2113 157.6ZM113.125 170H106.925V166H106.225C105.225 168.3 102.925 170.4 98.3746 170.4C92.8746 170.4 88.7246 166.45 88.7246 160V145.2H95.0246V159.4C95.0246 162.85 97.0246 164.9 100.625 164.9C104.675 164.9 106.825 162.4 106.825 158V145.2H113.125V170ZM124.912 145.2V148.8H125.612C126.562 146.05 128.662 145.1 131.812 145.1H134.212V150.8H130.512C127.312 150.8 125.012 152.5 125.012 156V170H118.712V145.2H124.912ZM149.59 156.5V148.5C149.59 139.8 155.24 134.3 164.09 134.3C172.94 134.3 177.99 139.1 177.99 147.3V147.7H171.39V147.2C171.39 143 168.89 140.2 164.09 140.2C159.14 140.2 156.19 143.8 156.19 148.2V156.8C156.19 161.6 158.94 164.8 164.09 164.8C169.34 164.8 171.39 162.25 171.39 158.05V157.7H162.89V151.9H177.99V157.7C177.99 166.05 173.14 170.7 164.09 170.7C155.49 170.7 149.59 165.8 149.59 156.5ZM188.486 145.2V148.8H189.186C190.136 146.05 192.236 145.1 195.386 145.1H197.786V150.8H194.086C190.886 150.8 188.586 152.5 188.586 156V170H182.286V145.2H188.486ZM198.755 157.6C198.755 149.8 204.455 144.5 211.755 144.5C219.055 144.5 224.755 149.8 224.755 157.6C224.755 165.4 219.055 170.7 211.755 170.7C204.455 170.7 198.755 165.4 198.755 157.6ZM205.055 157.6C205.055 162.1 207.755 165.1 211.755 165.1C215.755 165.1 218.455 162.1 218.455 157.6C218.455 153.1 215.755 150.1 211.755 150.1C207.755 150.1 205.055 153.1 205.055 157.6ZM226.324 145.2H232.624L235.574 164.6H236.174L240.074 145.2H248.774L252.674 164.6H253.274L256.224 145.2H262.524L257.624 170H248.624L244.724 150.6H244.124L240.224 170H231.224L226.324 145.2ZM263.231 145.2H269.531V137.5H275.831V145.2H282.631V150.6H275.831V163.1C275.831 164.1 276.331 164.6 277.231 164.6H281.231V170H274.431C271.631 170 269.531 168 269.531 165.2V150.6H263.231V145.2ZM286.827 135H293.127V149.2H293.727C294.727 146.9 297.027 144.8 301.577 144.8C307.077 144.8 311.227 148.75 311.227 155.2V170H304.927V155.8C304.927 152.35 302.927 150.3 299.327 150.3C295.277 150.3 293.127 152.8 293.127 157.2V170H286.827V135Z" fill="white"/>
<defs>
<filter id="filter0_dddd_3778_1809" x="231.831" y="124.023" width="381.79" height="360.434" filterUnits="userSpaceOnUse" color-interpolation-filters="sRGB">
<feFlood flood-opacity="0" result="BackgroundImageFix"/>
<feColorMatrix in="SourceAlpha" type="matrix" values="0 0 0 0 0 0 0 0 0 0 0 0 0 0 0 0 0 0 127 0" result="hardAlpha"/>
<feOffset dx="-1.59127"/>
<feGaussianBlur stdDeviation="1.98909"/>
<feColorMatrix type="matrix" values="0 0 0 0 0 0 0 0 0 0 0 0 0 0 0 0 0 0 0.1 0"/>
<feBlend mode="normal" in2="BackgroundImageFix" result="effect1_dropShadow_3778_1809"/>
<feColorMatrix in="SourceAlpha" type="matrix" values="0 0 0 0 0 0 0 0 0 0 0 0 0 0 0 0 0 0 127 0" result="hardAlpha"/>
<feOffset dx="-7.16071"/>
<feGaussianBlur stdDeviation="3.58036"/>
<feColorMatrix type="matrix" values="0 0 0 0 0 0 0 0 0 0 0 0 0 0 0 0 0 0 0.09 0"/>
<feBlend mode="normal" in2="effect1_dropShadow_3778_1809" result="effect2_dropShadow_3778_1809"/>
<feColorMatrix in="SourceAlpha" type="matrix" values="0 0 0 0 0 0 0 0 0 0 0 0 0 0 0 0 0 0 127 0" result="hardAlpha"/>
<feOffset dx="-16.7083"/>
<feGaussianBlur stdDeviation="5.17163"/>
<feColorMatrix type="matrix" values="0 0 0 0 0 0 0 0 0 0 0 0 0 0 0 0 0 0 0.05 0"/>
<feBlend mode="normal" in2="effect2_dropShadow_3778_1809" result="effect3_dropShadow_3778_1809"/>
<feColorMatrix in="SourceAlpha" type="matrix" values="0 0 0 0 0 0 0 0 0 0 0 0 0 0 0 0 0 0 127 0" result="hardAlpha"/>
<feOffset dx="-30.2341"/>
<feGaussianBlur stdDeviation="5.96726"/>
<feColorMatrix type="matrix" values="0 0 0 0 0 0 0 0 0 0 0 0 0 0 0 0 0 0 0.01 0"/>
<feBlend mode="normal" in2="effect3_dropShadow_3778_1809" result="effect4_dropShadow_3778_1809"/>
<feBlend mode="normal" in="SourceGraphic" in2="effect4_dropShadow_3778_1809" result="shape"/>
</filter>
<filter id="filter1_dddd_3778_1809" x="290.755" y="182.832" width="263.939" height="242.817" filterUnits="userSpaceOnUse" color-interpolation-filters="sRGB">
<feFlood flood-opacity="0" result="BackgroundImageFix"/>
<feColorMatrix in="SourceAlpha" type="matrix" values="0 0 0 0 0 0 0 0 0 0 0 0 0 0 0 0 0 0 127 0" result="hardAlpha"/>
<feOffset dx="-1.59127"/>
<feGaussianBlur stdDeviation="1.98909"/>
<feColorMatrix type="matrix" values="0 0 0 0 0 0 0 0 0 0 0 0 0 0 0 0 0 0 0.1 0"/>
<feBlend mode="normal" in2="BackgroundImageFix" result="effect1_dropShadow_3778_1809"/>
<feColorMatrix in="SourceAlpha" type="matrix" values="0 0 0 0 0 0 0 0 0 0 0 0 0 0 0 0 0 0 127 0" result="hardAlpha"/>
<feOffset dx="-7.16071"/>
<feGaussianBlur stdDeviation="3.58036"/>
<feColorMatrix type="matrix" values="0 0 0 0 0 0 0 0 0 0 0 0 0 0 0 0 0 0 0.09 0"/>
<feBlend mode="normal" in2="effect1_dropShadow_3778_1809" result="effect2_dropShadow_3778_1809"/>
<feColorMatrix in="SourceAlpha" type="matrix" values="0 0 0 0 0 0 0 0 0 0 0 0 0 0 0 0 0 0 127 0" result="hardAlpha"/>
<feOffset dx="-16.7083"/>
<feGaussianBlur stdDeviation="5.17163"/>
<feColorMatrix type="matrix" values="0 0 0 0 0 0 0 0 0 0 0 0 0 0 0 0 0 0 0.05 0"/>
<feBlend mode="normal" in2="effect2_dropShadow_3778_1809" result="effect3_dropShadow_3778_1809"/>
<feColorMatrix in="SourceAlpha" type="matrix" values="0 0 0 0 0 0 0 0 0 0 0 0 0 0 0 0 0 0 127 0" result="hardAlpha"/>
<feOffset dx="-30.2341"/>
<feGaussianBlur stdDeviation="5.96726"/>
<feColorMatrix type="matrix" values="0 0 0 0 0 0 0 0 0 0 0 0 0 0 0 0 0 0 0.01 0"/>
<feBlend mode="normal" in2="effect3_dropShadow_3778_1809" result="effect4_dropShadow_3778_1809"/>
<feBlend mode="normal" in="SourceGraphic" in2="effect4_dropShadow_3778_1809" result="shape"/>
</filter>
<filter id="filter2_dddd_3778_1809" x="334.272" y="226.26" width="176.911" height="155.962" filterUnits="userSpaceOnUse" color-interpolation-filters="sRGB">
<feFlood flood-opacity="0" result="BackgroundImageFix"/>
<feColorMatrix in="SourceAlpha" type="matrix" values="0 0 0 0 0 0 0 0 0 0 0 0 0 0 0 0 0 0 127 0" result="hardAlpha"/>
<feOffset dx="-1.59127"/>
<feGaussianBlur stdDeviation="1.98909"/>
<feColorMatrix type="matrix" values="0 0 0 0 0 0 0 0 0 0 0 0 0 0 0 0 0 0 0.1 0"/>
<feBlend mode="normal" in2="BackgroundImageFix" result="effect1_dropShadow_3778_1809"/>
<feColorMatrix in="SourceAlpha" type="matrix" values="0 0 0 0 0 0 0 0 0 0 0 0 0 0 0 0 0 0 127 0" result="hardAlpha"/>
<feOffset dx="-7.16071"/>
<feGaussianBlur stdDeviation="3.58036"/>
<feColorMatrix type="matrix" values="0 0 0 0 0 0 0 0 0 0 0 0 0 0 0 0 0 0 0.09 0"/>
<feBlend mode="normal" in2="effect1_dropShadow_3778_1809" result="effect2_dropShadow_3778_1809"/>
<feColorMatrix in="SourceAlpha" type="matrix" values="0 0 0 0 0 0 0 0 0 0 0 0 0 0 0 0 0 0 127 0" result="hardAlpha"/>
<feOffset dx="-16.7083"/>
<feGaussianBlur stdDeviation="5.17163"/>
<feColorMatrix type="matrix" values="0 0 0 0 0 0 0 0 0 0 0 0 0 0 0 0 0 0 0.05 0"/>
<feBlend mode="normal" in2="effect2_dropShadow_3778_1809" result="effect3_dropShadow_3778_1809"/>
<feColorMatrix in="SourceAlpha" type="matrix" values="0 0 0 0 0 0 0 0 0 0 0 0 0 0 0 0 0 0 127 0" result="hardAlpha"/>
<feOffset dx="-30.2341"/>
<feGaussianBlur stdDeviation="5.96726"/>
<feColorMatrix type="matrix" values="0 0 0 0 0 0 0 0 0 0 0 0 0 0 0 0 0 0 0.01 0"/>
<feBlend mode="normal" in2="effect3_dropShadow_3778_1809" result="effect4_dropShadow_3778_1809"/>
<feBlend mode="normal" in="SourceGraphic" in2="effect4_dropShadow_3778_1809" result="shape"/>
</filter>
</defs>
</svg>
