<svg width="61" height="61" viewBox="0 0 61 61" fill="none" xmlns="http://www.w3.org/2000/svg">
<path fill-rule="evenodd" clip-rule="evenodd" d="M60.6715 41.323V13.6059C60.6715 6.50149 54.473 0.742188 46.8267 0.742188H14.4854C6.83913 0.742188 0.640625 6.50149 0.640625 13.6059V49.7617C0.640625 55.8431 5.94655 60.773 12.4917 60.773H57.9025C59.4318 60.773 60.6715 59.6212 60.6715 58.2003C60.6715 56.7794 59.4318 55.6275 57.9025 55.6275H12.4917C9.00504 55.6275 6.17853 53.0013 6.17853 49.7617C6.17853 46.522 9.00504 43.8958 12.4917 43.8958H57.9025C59.4318 43.8958 60.6715 42.7439 60.6715 41.323ZM6.17853 40.4655V13.6059C6.17853 9.34327 9.89763 5.88769 14.4854 5.88769H46.8267C51.4145 5.88769 55.1336 9.34327 55.1336 13.6059V38.7503H12.4917C10.255 38.7552 8.06575 39.35 6.17853 40.4655Z" fill="white"/>
<path d="M9.72278 49.7617C9.72278 48.3408 10.9625 47.1889 12.4917 47.1889H53.3614C54.8907 47.1889 56.1304 48.3408 56.1304 49.7617C56.1304 51.1826 54.8907 52.3344 53.3614 52.3344H12.4917C10.9625 52.3344 9.72278 51.1826 9.72278 49.7617Z" fill="white"/>
</svg>
