<svg width="76" height="76" viewBox="0 0 76 76" fill="none" xmlns="http://www.w3.org/2000/svg">
<path d="M15.8539 69.0632C13.5491 69.0632 11.2755 68.1911 9.53128 66.4469C7.84939 64.765 6.91501 62.5225 6.91501 60.1242C6.91501 57.726 7.84939 55.4835 9.53128 53.8016L50.0213 13.3116C53.5096 9.82322 59.1782 9.82322 62.6666 13.3116C64.3485 14.9935 65.2829 17.236 65.2829 19.6343C65.2829 22.0325 64.3485 24.275 62.6666 25.9569L22.1766 66.4469C20.4324 68.1911 18.1588 69.0632 15.8539 69.0632ZM56.3439 15.3672C55.2538 15.3672 54.1637 15.7721 53.3228 16.6131L12.8328 57.1031C12.023 57.9129 11.5869 58.9718 11.5869 60.1242C11.5869 61.2766 12.023 62.3356 12.8328 63.1454C14.4835 64.7962 17.2244 64.7962 18.8751 63.1454L59.3651 22.6554C60.1749 21.8456 60.611 20.7867 60.611 19.6343C60.611 18.4818 60.1749 17.4229 59.3651 16.6131C58.5242 15.7721 57.434 15.3672 56.3439 15.3672Z" fill="white"/>
<path d="M56.3748 31.2829C55.7831 31.2829 55.1913 31.0649 54.7241 30.5977L45.3802 21.2538C44.477 20.3506 44.477 18.8556 45.3802 17.9523C46.2835 17.0491 47.7785 17.0491 48.6817 17.9523L58.0256 27.2962C58.9288 28.1994 58.9288 29.6944 58.0256 30.5977C57.5584 31.0649 56.9666 31.2829 56.3748 31.2829Z" fill="white"/>
<path d="M31.4275 18.0769C31.2718 18.0769 31.1472 18.0458 30.9915 18.0146L26.7556 16.7688L22.5197 18.0146C21.9591 18.1703 21.3673 18.0146 20.9936 17.6097C20.5887 17.2048 20.4329 16.6442 20.5887 16.0836L21.8345 11.8477L20.5887 7.61181C20.4329 7.05118 20.5887 6.4594 20.9936 6.08565C21.3985 5.68075 21.9903 5.52502 22.5197 5.68075L26.7556 6.92659L30.9915 5.68075C31.5521 5.52502 32.1127 5.68075 32.5176 6.08565C32.9225 6.49055 33.0783 7.08233 32.9225 7.61181L31.6767 11.8477L32.9225 16.0836C33.0783 16.6442 32.9225 17.236 32.5176 17.6097C32.2373 17.9212 31.8324 18.0769 31.4275 18.0769ZM26.7556 13.5919C26.9113 13.5919 27.0359 13.623 27.1917 13.6542L29.1227 14.2148L28.5621 12.2837C28.4686 12.0034 28.4686 11.692 28.5621 11.4116L29.1227 9.48058L27.1917 10.0412C26.9113 10.1346 26.5999 10.1346 26.3196 10.0412L24.3885 9.48058L24.9491 11.4116C25.0426 11.692 25.0426 12.0034 24.9491 12.2837L24.3885 14.2148L26.3196 13.6542C26.4753 13.623 26.5999 13.5919 26.7556 13.5919Z" fill="white"/>
<path d="M18.9685 36.7647C18.8128 36.7647 18.6882 36.7335 18.5324 36.7024L14.2966 35.4565L10.0607 36.7024C9.50006 36.8581 8.93943 36.7024 8.53453 36.2975C8.12963 35.8926 7.9739 35.3008 8.12963 34.7713L9.37548 30.5354L8.12963 26.2996C7.9739 25.7389 8.12963 25.1471 8.53453 24.7734C8.93943 24.3996 9.53121 24.2128 10.0607 24.3685L14.2966 25.6143L18.5324 24.3685C19.0619 24.2128 19.6537 24.3685 20.0586 24.7734C20.4635 25.1783 20.6192 25.7701 20.4635 26.2996L19.2177 30.5354L20.4635 34.7713C20.6192 35.3319 20.4635 35.9237 20.0586 36.2975C19.7783 36.6089 19.3734 36.7647 18.9685 36.7647ZM14.2966 32.2796C14.4523 32.2796 14.5769 32.3108 14.7326 32.3419L16.6637 32.9025L16.103 30.9715C16.0096 30.6912 16.0096 30.3797 16.103 30.0994L16.6637 28.1683L14.7326 28.729C14.4523 28.8224 14.1408 28.8224 13.8605 28.729L11.9295 28.1683L12.4901 30.0994C12.5835 30.3797 12.5835 30.6912 12.4901 30.9715L11.9295 32.9025L13.8605 32.3419C14.0163 32.3108 14.1408 32.2796 14.2966 32.2796Z" fill="white"/>
<path d="M65.6877 52.3377C65.532 52.3377 65.4074 52.3065 65.2516 52.2754L61.0158 51.0295L56.7799 52.2754C56.2193 52.4311 55.6586 52.2754 55.2537 51.8705C54.8488 51.4656 54.6931 50.8738 54.8488 50.3443L56.0947 46.1084L54.8488 41.8726C54.6931 41.3119 54.8488 40.7201 55.2537 40.3464C55.6586 39.9726 56.2504 39.7858 56.7799 39.9415L61.0158 41.1873L65.2516 39.9415C65.7811 39.7858 66.3729 39.9415 66.7778 40.3464C67.1827 40.7513 67.3384 41.3431 67.1827 41.8726L65.9369 46.1084L67.1827 50.3443C67.3384 50.9049 67.1827 51.4967 66.7778 51.8705C66.4975 52.1819 66.0926 52.3377 65.6877 52.3377ZM61.0158 47.8526C61.1715 47.8526 61.2961 47.8838 61.4518 47.9149L63.3829 48.4755L62.8222 46.5445C62.7288 46.2642 62.7288 45.9527 62.8222 45.6724L63.3829 43.7413L61.4518 44.3019C61.1715 44.3954 60.86 44.3954 60.5797 44.3019L58.6487 43.7413L59.2093 45.6724C59.3027 45.9527 59.3027 46.2642 59.2093 46.5445L58.6487 48.4755L60.5797 47.9149C60.7355 47.8838 60.86 47.8526 61.0158 47.8526Z" fill="white"/>
</svg>
