<svg width="442" height="303" viewBox="0 0 442 303" fill="none" xmlns="http://www.w3.org/2000/svg">
<rect width="442" height="303" fill="#F07E1B"/>
<mask id="mask0_3778_1800" style="mask-type:alpha" maskUnits="userSpaceOnUse" x="0" y="0" width="442" height="303">
<rect width="442" height="303" fill="#008DD1"/>
</mask>
<g mask="url(#mask0_3778_1800)">
<g opacity="0.2" filter="url(#filter0_dddd_3778_1800)">
<ellipse cx="442.617" cy="304.241" rx="168.617" ry="168.283" fill="white"/>
</g>
<g opacity="0.5" filter="url(#filter1_dddd_3778_1800)">
<ellipse cx="442.615" cy="304.241" rx="109.692" ry="109.474" fill="white"/>
</g>
<g filter="url(#filter2_dddd_3778_1800)">
<ellipse cx="442.619" cy="304.241" rx="66.1777" ry="66.0464" fill="white"/>
</g>
</g>
<path d="M32.5 48.5C32.5 39.8 38.15 34.3 47 34.3C55.85 34.3 60.8 39.2 60.8 47V48.2H54.2V46.9C54.2 42.9 51.8 40.2 47 40.2C42.05 40.2 39.1 43.8 39.1 48.2V56.8C39.1 61.6 41.85 64.8 47 64.8C52.25 64.8 54.2 62.05 54.2 58.1V56.8H60.8V58C60.8 65.75 56.25 70.7 47 70.7C38.4 70.7 32.5 65.8 32.5 56.5V48.5ZM71.1035 45.2V48.8H71.8035C72.7535 46.05 74.8535 45.1 78.0035 45.1H80.4035V50.8H76.7035C73.5035 50.8 71.2035 52.5 71.2035 56V70H64.9035V45.2H71.1035ZM81.3723 57.4C81.3723 49.9 86.5223 44.5 93.8223 44.5C101.022 44.5 105.872 49.55 105.872 57V59.45H87.8223C88.0723 62.75 90.4223 65.3 94.0223 65.3C97.5223 65.3 99.3723 63.35 100.222 61.6L105.372 64.6C103.672 67.2 100.772 70.7 94.1223 70.7C86.7223 70.7 81.3723 65.1 81.3723 57.4ZM87.8723 55.05H99.4723C99.0223 51.9 97.0223 49.9 93.7723 49.9C90.2223 49.9 88.3723 52 87.8723 55.05ZM108.977 50.9C111.927 47.2 115.277 44.5 121.327 44.5C128.077 44.5 132.477 48.35 132.477 54.15V70H126.277V66.5H125.577C124.777 68.15 123.027 70.7 117.777 70.7C112.177 70.7 108.477 67.7 108.477 62.95C108.477 59 111.927 56.25 116.677 55.75L126.177 54.7V54.1C126.177 51.75 124.377 49.9 120.977 49.9C117.677 49.9 115.627 51.6 114.077 54.2L108.977 50.9ZM115.077 62.6C115.077 64.3 116.527 65.5 119.327 65.5C123.727 65.5 126.177 62.9 126.177 59.5V59.1L118.577 60C116.227 60.3 115.077 61.15 115.077 62.6ZM134.667 45.2H140.967V37.5H147.267V45.2H154.067V50.6H147.267V63.1C147.267 64.1 147.767 64.6 148.667 64.6H152.667V70H145.867C143.067 70 140.967 68 140.967 65.2V50.6H134.667V45.2ZM156.963 38C156.963 35.45 158.913 33.7 161.413 33.7C163.913 33.7 165.863 35.45 165.863 38C165.863 40.55 163.913 42.3 161.413 42.3C158.913 42.3 156.963 40.55 156.963 38ZM164.563 45.2V70H158.263V45.2H164.563ZM167.477 45.2H174.277L180.377 64.5H180.977L187.077 45.2H193.877L185.327 70H176.027L167.477 45.2ZM194.8 57.4C194.8 49.9 199.95 44.5 207.25 44.5C214.45 44.5 219.3 49.55 219.3 57V59.45H201.25C201.5 62.75 203.85 65.3 207.45 65.3C210.95 65.3 212.8 63.35 213.65 61.6L218.8 64.6C217.1 67.2 214.2 70.7 207.55 70.7C200.15 70.7 194.8 65.1 194.8 57.4ZM201.3 55.05H212.9C212.45 51.9 210.45 49.9 207.2 49.9C203.65 49.9 201.8 52 201.3 55.05ZM45.85 84.3C53.35 84.3 58.8 88.4 58.8 95.4V96.9H52.4V95.85C52.4 91.85 49.85 90.1 45.85 90.1C42.35 90.1 40.2 91.85 40.2 94.25C40.2 97.55 43.3 98.15 47.5 99.1L47.95 99.2C55.15 100.8 59.4 103.35 59.4 109.7C59.4 116.75 53.9 120.7 46.45 120.7C37.9 120.7 32.4 116.1 32.4 107.9V106.8H38.9V107.7C38.9 112 41.35 114.9 46.65 114.9C50.9 114.9 52.9 112.65 52.9 110.05C52.9 107 50.3 106 45.7 105L45.25 104.9C38 103.3 33.7 100.8 33.7 94.45C33.7 88.2 39.05 84.3 45.85 84.3ZM61.3758 95.2H67.6758V87.5H73.9758V95.2H80.7758V100.6H73.9758V113.1C73.9758 114.1 74.4758 114.6 75.3758 114.6H79.3758V120H72.5758C69.7758 120 67.6758 118 67.6758 115.2V100.6H61.3758V95.2ZM91.1719 95.2V98.8H91.8719C92.8219 96.05 94.9219 95.1 98.0719 95.1H100.472V100.8H96.7719C93.5719 100.8 91.2719 102.5 91.2719 106V120H84.9719V95.2H91.1719ZM102.629 100.9C105.579 97.2 108.929 94.5 114.979 94.5C121.729 94.5 126.129 98.35 126.129 104.15V120H119.929V116.5H119.229C118.429 118.15 116.679 120.7 111.429 120.7C105.829 120.7 102.129 117.7 102.129 112.95C102.129 109 105.579 106.25 110.329 105.75L119.829 104.7V104.1C119.829 101.75 118.029 99.9 114.629 99.9C111.329 99.9 109.279 101.6 107.729 104.2L102.629 100.9ZM108.729 112.6C108.729 114.3 110.179 115.5 112.979 115.5C117.379 115.5 119.829 112.9 119.829 109.5V109.1L112.229 110C109.879 110.3 108.729 111.15 108.729 112.6ZM128.319 95.2H134.619V87.5H140.919V95.2H147.719V100.6H140.919V113.1C140.919 114.1 141.419 114.6 142.319 114.6H146.319V120H139.519C136.719 120 134.619 118 134.619 115.2V100.6H128.319V95.2ZM150.171 107.4C150.171 99.9 155.321 94.5 162.621 94.5C169.821 94.5 174.671 99.55 174.671 107V109.45H156.621C156.871 112.75 159.221 115.3 162.821 115.3C166.321 115.3 168.171 113.35 169.021 111.6L174.171 114.6C172.471 117.2 169.571 120.7 162.921 120.7C155.521 120.7 150.171 115.1 150.171 107.4ZM156.671 105.05H168.271C167.821 101.9 165.821 99.9 162.571 99.9C159.021 99.9 157.171 102 156.671 105.05ZM197.075 95.2H203.275V119.15C203.275 125.95 198.325 130.7 190.525 130.7C183.725 130.7 179.875 127.6 177.375 123.7L182.675 120.4C183.975 122.95 186.375 125.3 190.125 125.3C194.025 125.3 196.975 123.3 196.975 118.9V115.7H196.375C195.075 117.8 192.875 119.9 188.475 119.9C182.275 119.9 177.075 114.6 177.075 107.2C177.075 99.8 182.275 94.5 188.475 94.5C192.875 94.5 195.075 96.6 196.375 98.7H197.075V95.2ZM190.175 114.3C194.075 114.3 196.975 111.7 196.975 107.2C196.975 102.7 194.075 100.1 190.175 100.1C186.375 100.1 183.375 102.6 183.375 107.2C183.375 111.8 186.375 114.3 190.175 114.3ZM207.598 88C207.598 85.45 209.548 83.7 212.048 83.7C214.548 83.7 216.498 85.45 216.498 88C216.498 90.55 214.548 92.3 212.048 92.3C209.548 92.3 207.598 90.55 207.598 88ZM215.198 95.2V120H208.898V95.2H215.198ZM219.312 107.4C219.312 99.9 224.462 94.5 231.762 94.5C238.962 94.5 243.812 99.55 243.812 107V109.45H225.762C226.012 112.75 228.362 115.3 231.962 115.3C235.462 115.3 237.312 113.35 238.162 111.6L243.312 114.6C241.612 117.2 238.712 120.7 232.062 120.7C224.662 120.7 219.312 115.1 219.312 107.4ZM225.812 105.05H237.412C236.962 101.9 234.962 99.9 231.712 99.9C228.162 99.9 226.312 102 225.812 105.05ZM246.916 102.2C246.916 97.6 251.116 94.5 256.866 94.5C261.966 94.5 265.566 96.75 268.916 100.25L264.366 103.85C262.466 101.6 259.966 99.6 256.666 99.6C254.316 99.6 253.016 100.6 253.016 102.1C253.016 103.9 254.866 104.35 257.466 104.65L258.316 104.75C266.266 105.7 269.216 107.75 269.216 112.3C269.216 117.15 264.666 120.7 258.066 120.7C251.216 120.7 247.416 117.2 245.116 113.7L250.116 110.55C251.666 113.8 255.016 115.5 258.216 115.5C260.766 115.5 263.116 114.4 263.116 112.45C263.116 110.6 260.566 110.25 257.866 109.95L257.016 109.85C250.066 109.05 246.916 106.8 246.916 102.2ZM284.583 95.2H290.883V90.1C290.883 87.2 292.983 85 295.883 85H302.383V90.4H298.583C297.683 90.4 297.183 90.9 297.183 91.9V95.2H303.683V100.6H297.183V120H290.883V100.6H284.583V95.2ZM305.64 107.6C305.64 99.8 311.34 94.5 318.64 94.5C325.94 94.5 331.64 99.8 331.64 107.6C331.64 115.4 325.94 120.7 318.64 120.7C311.34 120.7 305.64 115.4 305.64 107.6ZM311.94 107.6C311.94 112.1 314.64 115.1 318.64 115.1C322.64 115.1 325.34 112.1 325.34 107.6C325.34 103.1 322.64 100.1 318.64 100.1C314.64 100.1 311.94 103.1 311.94 107.6ZM341.953 95.2V98.8H342.653C343.603 96.05 345.703 95.1 348.853 95.1H351.253V100.8H347.553C344.353 100.8 342.053 102.5 342.053 106V120H335.753V95.2H341.953ZM30.7 135H38.2L45.85 149.9H46.75L54.4 135H61.9L49.6 158.15V170H43V158.15L30.7 135ZM58.9113 157.6C58.9113 149.8 64.6113 144.5 71.9113 144.5C79.2113 144.5 84.9113 149.8 84.9113 157.6C84.9113 165.4 79.2113 170.7 71.9113 170.7C64.6113 170.7 58.9113 165.4 58.9113 157.6ZM65.2113 157.6C65.2113 162.1 67.9113 165.1 71.9113 165.1C75.9113 165.1 78.6113 162.1 78.6113 157.6C78.6113 153.1 75.9113 150.1 71.9113 150.1C67.9113 150.1 65.2113 153.1 65.2113 157.6ZM113.125 170H106.925V166H106.225C105.225 168.3 102.925 170.4 98.3746 170.4C92.8746 170.4 88.7246 166.45 88.7246 160V145.2H95.0246V159.4C95.0246 162.85 97.0246 164.9 100.625 164.9C104.675 164.9 106.825 162.4 106.825 158V145.2H113.125V170ZM124.912 145.2V148.8H125.612C126.562 146.05 128.662 145.1 131.812 145.1H134.212V150.8H130.512C127.312 150.8 125.012 152.5 125.012 156V170H118.712V145.2H124.912ZM162.94 134.3C170.44 134.3 175.89 138.4 175.89 145.4V146.9H169.49V145.85C169.49 141.85 166.94 140.1 162.94 140.1C159.44 140.1 157.29 141.85 157.29 144.25C157.29 147.55 160.39 148.15 164.59 149.1L165.04 149.2C172.24 150.8 176.49 153.35 176.49 159.7C176.49 166.75 170.99 170.7 163.54 170.7C154.99 170.7 149.49 166.1 149.49 157.9V156.8H155.99V157.7C155.99 162 158.44 164.9 163.74 164.9C167.99 164.9 169.99 162.65 169.99 160.05C169.99 157 167.39 156 162.79 155L162.34 154.9C155.09 153.3 150.79 150.8 150.79 144.45C150.79 138.2 156.14 134.3 162.94 134.3ZM205.166 170H198.966V166H198.266C197.266 168.3 194.966 170.4 190.416 170.4C184.916 170.4 180.766 166.45 180.766 160V145.2H187.066V159.4C187.066 162.85 189.066 164.9 192.666 164.9C196.716 164.9 198.866 162.4 198.866 158V145.2H205.166V170ZM209.253 157.6C209.253 149.9 214.953 144.5 222.153 144.5C229.053 144.5 233.353 148.35 234.653 154L228.453 155.6C228.003 152.6 226.053 150.1 222.253 150.1C218.453 150.1 215.553 153.1 215.553 157.6C215.553 162.1 218.203 165.1 222.253 165.1C226.053 165.1 227.803 162.9 228.453 159.65L234.653 161.2C233.453 166.85 229.103 170.7 222.153 170.7C214.953 170.7 209.253 165.3 209.253 157.6ZM237.036 157.6C237.036 149.9 242.736 144.5 249.936 144.5C256.836 144.5 261.136 148.35 262.436 154L256.236 155.6C255.786 152.6 253.836 150.1 250.036 150.1C246.236 150.1 243.336 153.1 243.336 157.6C243.336 162.1 245.986 165.1 250.036 165.1C253.836 165.1 255.586 162.9 256.236 159.65L262.436 161.2C261.236 166.85 256.886 170.7 249.936 170.7C242.736 170.7 237.036 165.3 237.036 157.6ZM264.82 157.4C264.82 149.9 269.97 144.5 277.27 144.5C284.47 144.5 289.32 149.55 289.32 157V159.45H271.27C271.52 162.75 273.87 165.3 277.47 165.3C280.97 165.3 282.82 163.35 283.67 161.6L288.82 164.6C287.12 167.2 284.22 170.7 277.57 170.7C270.17 170.7 264.82 165.1 264.82 157.4ZM271.32 155.05H282.92C282.47 151.9 280.47 149.9 277.22 149.9C273.67 149.9 271.82 152 271.32 155.05ZM292.424 152.2C292.424 147.6 296.624 144.5 302.374 144.5C307.474 144.5 311.074 146.75 314.424 150.25L309.874 153.85C307.974 151.6 305.474 149.6 302.174 149.6C299.824 149.6 298.524 150.6 298.524 152.1C298.524 153.9 300.374 154.35 302.974 154.65L303.824 154.75C311.774 155.7 314.724 157.75 314.724 162.3C314.724 167.15 310.174 170.7 303.574 170.7C296.724 170.7 292.924 167.2 290.624 163.7L295.624 160.55C297.174 163.8 300.524 165.5 303.724 165.5C306.274 165.5 308.624 164.4 308.624 162.45C308.624 160.6 306.074 160.25 303.374 159.95L302.524 159.85C295.574 159.05 292.424 156.8 292.424 152.2ZM317.57 152.2C317.57 147.6 321.77 144.5 327.52 144.5C332.62 144.5 336.22 146.75 339.57 150.25L335.02 153.85C333.12 151.6 330.62 149.6 327.32 149.6C324.97 149.6 323.67 150.6 323.67 152.1C323.67 153.9 325.52 154.35 328.12 154.65L328.97 154.75C336.92 155.7 339.87 157.75 339.87 162.3C339.87 167.15 335.32 170.7 328.72 170.7C321.87 170.7 318.07 167.2 315.77 163.7L320.77 160.55C322.32 163.8 325.67 165.5 328.87 165.5C331.42 165.5 333.77 164.4 333.77 162.45C333.77 160.6 331.22 160.25 328.52 159.95L327.67 159.85C320.72 159.05 317.57 156.8 317.57 152.2Z" fill="white"/>
<defs>
<filter id="filter0_dddd_3778_1800" x="231.831" y="124.023" width="381.79" height="360.434" filterUnits="userSpaceOnUse" color-interpolation-filters="sRGB">
<feFlood flood-opacity="0" result="BackgroundImageFix"/>
<feColorMatrix in="SourceAlpha" type="matrix" values="0 0 0 0 0 0 0 0 0 0 0 0 0 0 0 0 0 0 127 0" result="hardAlpha"/>
<feOffset dx="-1.59127"/>
<feGaussianBlur stdDeviation="1.98909"/>
<feColorMatrix type="matrix" values="0 0 0 0 0 0 0 0 0 0 0 0 0 0 0 0 0 0 0.1 0"/>
<feBlend mode="normal" in2="BackgroundImageFix" result="effect1_dropShadow_3778_1800"/>
<feColorMatrix in="SourceAlpha" type="matrix" values="0 0 0 0 0 0 0 0 0 0 0 0 0 0 0 0 0 0 127 0" result="hardAlpha"/>
<feOffset dx="-7.16071"/>
<feGaussianBlur stdDeviation="3.58036"/>
<feColorMatrix type="matrix" values="0 0 0 0 0 0 0 0 0 0 0 0 0 0 0 0 0 0 0.09 0"/>
<feBlend mode="normal" in2="effect1_dropShadow_3778_1800" result="effect2_dropShadow_3778_1800"/>
<feColorMatrix in="SourceAlpha" type="matrix" values="0 0 0 0 0 0 0 0 0 0 0 0 0 0 0 0 0 0 127 0" result="hardAlpha"/>
<feOffset dx="-16.7083"/>
<feGaussianBlur stdDeviation="5.17163"/>
<feColorMatrix type="matrix" values="0 0 0 0 0 0 0 0 0 0 0 0 0 0 0 0 0 0 0.05 0"/>
<feBlend mode="normal" in2="effect2_dropShadow_3778_1800" result="effect3_dropShadow_3778_1800"/>
<feColorMatrix in="SourceAlpha" type="matrix" values="0 0 0 0 0 0 0 0 0 0 0 0 0 0 0 0 0 0 127 0" result="hardAlpha"/>
<feOffset dx="-30.2341"/>
<feGaussianBlur stdDeviation="5.96726"/>
<feColorMatrix type="matrix" values="0 0 0 0 0 0 0 0 0 0 0 0 0 0 0 0 0 0 0.01 0"/>
<feBlend mode="normal" in2="effect3_dropShadow_3778_1800" result="effect4_dropShadow_3778_1800"/>
<feBlend mode="normal" in="SourceGraphic" in2="effect4_dropShadow_3778_1800" result="shape"/>
</filter>
<filter id="filter1_dddd_3778_1800" x="290.755" y="182.832" width="263.939" height="242.817" filterUnits="userSpaceOnUse" color-interpolation-filters="sRGB">
<feFlood flood-opacity="0" result="BackgroundImageFix"/>
<feColorMatrix in="SourceAlpha" type="matrix" values="0 0 0 0 0 0 0 0 0 0 0 0 0 0 0 0 0 0 127 0" result="hardAlpha"/>
<feOffset dx="-1.59127"/>
<feGaussianBlur stdDeviation="1.98909"/>
<feColorMatrix type="matrix" values="0 0 0 0 0 0 0 0 0 0 0 0 0 0 0 0 0 0 0.1 0"/>
<feBlend mode="normal" in2="BackgroundImageFix" result="effect1_dropShadow_3778_1800"/>
<feColorMatrix in="SourceAlpha" type="matrix" values="0 0 0 0 0 0 0 0 0 0 0 0 0 0 0 0 0 0 127 0" result="hardAlpha"/>
<feOffset dx="-7.16071"/>
<feGaussianBlur stdDeviation="3.58036"/>
<feColorMatrix type="matrix" values="0 0 0 0 0 0 0 0 0 0 0 0 0 0 0 0 0 0 0.09 0"/>
<feBlend mode="normal" in2="effect1_dropShadow_3778_1800" result="effect2_dropShadow_3778_1800"/>
<feColorMatrix in="SourceAlpha" type="matrix" values="0 0 0 0 0 0 0 0 0 0 0 0 0 0 0 0 0 0 127 0" result="hardAlpha"/>
<feOffset dx="-16.7083"/>
<feGaussianBlur stdDeviation="5.17163"/>
<feColorMatrix type="matrix" values="0 0 0 0 0 0 0 0 0 0 0 0 0 0 0 0 0 0 0.05 0"/>
<feBlend mode="normal" in2="effect2_dropShadow_3778_1800" result="effect3_dropShadow_3778_1800"/>
<feColorMatrix in="SourceAlpha" type="matrix" values="0 0 0 0 0 0 0 0 0 0 0 0 0 0 0 0 0 0 127 0" result="hardAlpha"/>
<feOffset dx="-30.2341"/>
<feGaussianBlur stdDeviation="5.96726"/>
<feColorMatrix type="matrix" values="0 0 0 0 0 0 0 0 0 0 0 0 0 0 0 0 0 0 0.01 0"/>
<feBlend mode="normal" in2="effect3_dropShadow_3778_1800" result="effect4_dropShadow_3778_1800"/>
<feBlend mode="normal" in="SourceGraphic" in2="effect4_dropShadow_3778_1800" result="shape"/>
</filter>
<filter id="filter2_dddd_3778_1800" x="334.272" y="226.26" width="176.911" height="155.962" filterUnits="userSpaceOnUse" color-interpolation-filters="sRGB">
<feFlood flood-opacity="0" result="BackgroundImageFix"/>
<feColorMatrix in="SourceAlpha" type="matrix" values="0 0 0 0 0 0 0 0 0 0 0 0 0 0 0 0 0 0 127 0" result="hardAlpha"/>
<feOffset dx="-1.59127"/>
<feGaussianBlur stdDeviation="1.98909"/>
<feColorMatrix type="matrix" values="0 0 0 0 0 0 0 0 0 0 0 0 0 0 0 0 0 0 0.1 0"/>
<feBlend mode="normal" in2="BackgroundImageFix" result="effect1_dropShadow_3778_1800"/>
<feColorMatrix in="SourceAlpha" type="matrix" values="0 0 0 0 0 0 0 0 0 0 0 0 0 0 0 0 0 0 127 0" result="hardAlpha"/>
<feOffset dx="-7.16071"/>
<feGaussianBlur stdDeviation="3.58036"/>
<feColorMatrix type="matrix" values="0 0 0 0 0 0 0 0 0 0 0 0 0 0 0 0 0 0 0.09 0"/>
<feBlend mode="normal" in2="effect1_dropShadow_3778_1800" result="effect2_dropShadow_3778_1800"/>
<feColorMatrix in="SourceAlpha" type="matrix" values="0 0 0 0 0 0 0 0 0 0 0 0 0 0 0 0 0 0 127 0" result="hardAlpha"/>
<feOffset dx="-16.7083"/>
<feGaussianBlur stdDeviation="5.17163"/>
<feColorMatrix type="matrix" values="0 0 0 0 0 0 0 0 0 0 0 0 0 0 0 0 0 0 0.05 0"/>
<feBlend mode="normal" in2="effect2_dropShadow_3778_1800" result="effect3_dropShadow_3778_1800"/>
<feColorMatrix in="SourceAlpha" type="matrix" values="0 0 0 0 0 0 0 0 0 0 0 0 0 0 0 0 0 0 127 0" result="hardAlpha"/>
<feOffset dx="-30.2341"/>
<feGaussianBlur stdDeviation="5.96726"/>
<feColorMatrix type="matrix" values="0 0 0 0 0 0 0 0 0 0 0 0 0 0 0 0 0 0 0.01 0"/>
<feBlend mode="normal" in2="effect3_dropShadow_3778_1800" result="effect4_dropShadow_3778_1800"/>
<feBlend mode="normal" in="SourceGraphic" in2="effect4_dropShadow_3778_1800" result="shape"/>
</filter>
</defs>
</svg>
