<svg width="76" height="76" viewBox="0 0 76 76" fill="none" xmlns="http://www.w3.org/2000/svg">
<path d="M38.2861 71.8352C34.8912 71.8352 31.5274 70.8385 28.88 68.8763L15.4872 58.8784C11.9365 56.231 9.16449 50.687 9.16449 46.2954V23.1227C9.16449 18.3261 12.684 13.2182 17.2002 11.5363L32.7421 5.71196C35.8256 4.55955 40.6844 4.55955 43.7679 5.71196L59.3098 11.5363C63.826 13.2182 67.3455 18.3261 67.3455 23.1227V46.2642C67.3455 50.687 64.5735 56.1998 61.0228 58.8473L47.63 68.8452C45.0448 70.8385 41.6811 71.8352 38.2861 71.8352ZM34.3929 10.1036L18.8509 15.9279C16.2035 16.9246 13.8676 20.2884 13.8676 23.1538V46.2954C13.8676 49.2543 15.9543 53.3967 18.2903 55.1409L31.6832 65.1388C35.265 67.8174 41.3073 67.8174 44.9203 65.1388L58.3131 55.1409C60.6802 53.3656 62.7359 49.2543 62.7359 46.2954V23.1227C62.7359 20.2884 60.3999 16.9246 57.7525 15.8967L42.2105 10.0724C40.0926 9.32491 36.4797 9.32491 34.3929 10.1036Z" fill="white"/>
<path d="M34.1127 45.2677C33.5209 45.2677 32.9291 45.0496 32.4619 44.5825L27.4474 39.5679C26.5442 38.6647 26.5442 37.1697 27.4474 36.2664C28.3506 35.3632 29.8456 35.3632 30.7489 36.2664L34.1127 39.6302L45.8548 27.8881C46.758 26.9849 48.253 26.9849 49.1563 27.8881C50.0595 28.7914 50.0595 30.2864 49.1563 31.1896L35.7634 44.5825C35.2962 45.0496 34.7044 45.2677 34.1127 45.2677Z" fill="white"/>
</svg>
